<svg width="324" height="324" viewBox="0 0 324 324" fill="none" xmlns="http://www.w3.org/2000/svg">
<path d="M318.342 165.12C322.347 165.09 323.693 167.536 323.724 174.997C323.724 180.471 321.552 193.191 318.923 203.281C316.293 213.372 309.749 229.883 304.398 239.974C299.017 250.064 286.388 266.637 276.298 276.82C265.168 288.011 250.124 299.172 238.076 305.165C227.129 310.577 210.618 317.029 201.384 319.506C192.119 321.983 174.231 323.97 161.633 323.97C149.004 323.97 130.444 321.769 120.353 319.109C110.263 316.448 96.5033 311.525 89.7763 308.131C83.0493 304.737 73.0807 298.683 67.6073 294.677C62.1342 290.641 57.639 285.657 57.6083 283.547C57.5777 281.437 67.5464 275.261 102.007 259.85L120.353 267.433C133.991 273.059 144.388 275.016 160.869 275.077C176.494 275.108 188.235 273.151 200.619 268.411C210.282 264.711 223.583 257.495 230.157 252.358C236.701 247.221 245.997 238.201 250.767 232.33C255.537 226.459 262.722 213.372 266.727 203.281C273.577 186.005 275.167 184.354 293.514 175.059C304.215 169.647 315.406 165.182 318.342 165.12ZM160.104 0.00313738C176.647 -0.0885762 194.32 1.83793 204.441 4.80392C213.706 7.49473 229.515 14.0381 239.605 19.3586C249.696 24.6485 266.239 37.2466 276.329 47.3371C287.184 58.1614 299.109 74.2141 305.377 86.5061C314.856 104.975 315.498 107.696 311.248 110.968C308.587 112.956 242.082 143.503 163.406 178.82C44.677 232.115 19.9081 242.267 17.6444 238.446C16.1156 235.908 11.957 226.306 8.41007 217.041C4.28215 206.37 1.34657 190.164 0.36808 172.704C-0.579815 155.948 0.337559 138.029 2.72257 126.838C4.86299 116.748 11.4986 98.8594 17.4306 87.0871C23.7295 74.5811 35.287 58.6197 45.2245 48.6516C54.6117 39.2949 69.136 27.5834 77.5448 22.6604C85.9536 17.7374 101.762 10.6438 112.709 6.91329C127.325 1.8986 139.893 0.0642921 160.104 0.00313738ZM160.869 49.0188C142.553 49.1411 131.025 51.0065 118.825 55.7766C108.337 59.9045 95.2804 68.7409 84.1503 79.3205C73.4788 89.4722 63.1128 103.018 58.3427 113.078C53.2975 123.719 49.8733 137.174 48.956 149.772C48.0082 162.919 48.7418 170.41 51.0653 171.94C53.0835 173.224 94.7914 156.223 147.109 132.801C197.99 110.021 240.982 89.9316 242.664 88.1887C244.743 86.0788 241.257 81.0943 231.962 72.8996C224.409 66.2338 210.985 58.0698 202.148 54.7981C190.835 50.609 178.634 48.927 160.869 49.0188Z" fill="white"/>
</svg>
