<svg width="924" height="359" viewBox="0 0 924 359" fill="none" xmlns="http://www.w3.org/2000/svg">
<path d="M528.321 6.806C510.512 15.7103 502.795 32.3316 502.795 77.4466C502.795 77.4466 511.699 68.5423 525.946 63.1998C536.334 59.3412 543.755 54.2955 549.097 50.437C564.531 38.8614 566.906 24.9114 566.906 0.573006C566.609 0.573006 542.271 -0.91104 528.321 6.806Z" fill="#FF9A1F"/>
<path d="M419.392 17.1936C403.957 29.9564 400.099 51.9202 400.099 51.9202L350.235 243.065L309.275 86.6469C305.417 70.0256 297.7 49.5458 286.124 35.2989C271.877 17.1935 242.196 16.0063 238.635 16.0063C235.963 16.0063 206.579 17.1935 191.145 35.2989C179.57 49.5458 171.853 70.0256 167.994 86.6469L129.409 243.065L79.5449 51.9202C79.5449 51.9202 75.6864 31.4404 60.2523 17.1936C35.9139 -4.77034 0 0.572229 0 0.572229L94.979 358.227C94.979 358.227 125.847 360.899 141.281 353.182C161.761 342.793 172.149 335.373 183.725 286.4C195.301 242.769 226.169 115.734 228.543 106.83C229.73 102.971 232.402 91.3959 240.119 91.3959C247.836 91.3959 250.507 101.784 251.694 106.83C254.366 115.734 284.937 242.769 296.512 286.4C309.275 335.076 318.18 342.793 338.956 353.182C354.39 360.899 385.258 358.227 385.258 358.227L479.644 0.572229C479.644 0.572229 443.73 -4.47353 419.392 17.1936ZM566.609 58.1532C566.609 58.1532 560.079 67.0575 547.316 74.7746C538.412 79.8203 530.695 82.4916 521.791 87.5374C506.357 95.2544 502.498 102.971 502.498 114.547V357.04C502.498 357.04 526.836 359.711 542.271 351.994C562.75 341.606 566.609 331.515 566.609 287.884V72.4001V58.1532ZM802.572 180.142L923.077 1.75947C923.077 1.75947 873.213 -7.14481 847.391 16.0063C830.769 30.2532 814.148 56.966 814.148 56.966L770.517 121.077C767.846 124.935 765.471 127.607 761.613 127.607C757.754 127.607 753.896 123.748 752.708 121.077L709.077 56.966C709.077 56.966 691.269 31.4404 675.835 16.0063C650.309 -7.14481 600.148 1.75947 600.148 1.75947L716.794 179.845L597.477 357.931C597.477 357.931 650.012 364.46 675.835 341.309C692.456 327.062 707.89 302.724 707.89 302.724L751.521 238.613C754.192 234.755 756.567 232.083 760.425 232.083C764.284 232.083 768.142 235.942 769.33 238.613L812.961 302.724C812.961 302.724 829.582 327.062 845.016 341.309C870.542 364.46 921.89 357.931 921.89 357.931L802.572 180.142Z" fill="#F2F2F2"/>
</svg>
