<svg width="346" height="346" viewBox="0 0 346 346" fill="none" xmlns="http://www.w3.org/2000/svg">
<rect width="346" height="346" rx="38" fill="white"/>
<path d="M157.883 184.462V152.287H124.779V167.538C124.779 177.829 124.903 183.222 125.151 183.718C125.275 184.214 130.73 184.462 141.517 184.462H157.883ZM125.337 82.73C125.089 83.474 124.965 85.5818 124.965 89.0534V99.8404V114.719L141.517 114.905H157.883V82.73H125.337ZM87.5823 133.503L87.3963 44.9757H135.194L182.991 45.1617L185.781 46.4635C189.5 48.3234 192.228 50.9891 193.964 54.4608L195.452 57.6225V209.57L194.15 212.546C192.414 216.141 189.686 218.807 185.967 220.543L183.549 221.845H135.566L87.5823 222.031V133.503Z" fill="black"/>
<path d="M117.618 258.695V248.369H103.177L103.339 254.339C103.446 258.641 103.5 265.982 103.5 276.362V292.416H117.86L117.779 280.718C117.671 272.113 117.618 264.772 117.618 258.695ZM92.8513 232.154C93.4967 232.046 99.574 231.993 111.083 231.993C122.592 232.046 128.696 232.208 129.396 232.477C130.74 233.014 131.816 233.848 132.622 234.977C133.16 235.73 133.456 236.51 133.51 237.317C133.671 238.769 133.779 249.902 133.833 270.715L133.913 303.871L133.429 304.839C132.784 306.237 131.735 307.313 130.283 308.066L129.396 308.55H92.1253L91.1572 308.066C89.7589 307.367 88.6833 306.291 87.9303 304.839L87.3656 303.79V237.236L88.0917 235.703C89.006 233.714 90.5925 232.53 92.8513 232.154Z" fill="black"/>
<path d="M164.16 269.182C164.16 268.967 160.503 262.594 153.189 250.063C145.928 237.478 142.298 231.078 142.298 230.863H142.459C142.513 230.809 142.594 230.782 142.701 230.782C142.809 230.782 142.916 230.782 143.024 230.782C143.4 230.836 146.009 230.971 150.849 231.186C155.152 231.401 157.841 231.616 158.916 231.831C160.046 232.046 161.068 232.584 161.982 233.445C162.735 234.144 164.268 236.51 166.58 240.544C167.333 241.834 168.382 243.663 169.726 246.029C171.071 248.396 171.77 249.606 171.824 249.66C172.953 251.596 173.599 252.564 173.76 252.564L173.841 252.483C173.894 252.429 175.615 249.471 179.004 243.609C182.284 237.908 184.14 234.789 184.57 234.251C185.592 232.961 186.802 232.154 188.2 231.831C189.437 231.562 192.234 231.347 196.59 231.186C200.892 230.971 203.608 230.863 204.738 230.863H205.141C205.141 230.917 204.012 232.907 201.753 236.833C190.459 256.409 184.624 266.52 184.247 267.165L183.037 269.182L190.862 282.654C192.583 285.612 194.842 289.511 197.639 294.352C200.435 299.192 201.861 301.639 201.914 301.693C204.066 305.404 205.141 307.313 205.141 307.421C205.141 307.528 202.667 307.582 197.719 307.582C192.556 307.582 189.76 307.528 189.33 307.421C187.824 307.098 186.56 306.426 185.538 305.404C184.677 304.328 182.607 300.967 179.326 295.32C178.466 293.868 177.578 292.335 176.664 290.722C175.75 289.054 175.051 287.817 174.567 287.011L173.841 285.72C173.787 285.666 173.518 286.016 173.034 286.769C172.604 287.522 171.931 288.651 171.017 290.157C170.157 291.609 169.215 293.222 168.194 294.997C164.698 301.182 162.627 304.624 161.982 305.323C161.014 306.399 159.723 307.098 158.11 307.421C157.249 307.528 153.565 307.582 147.058 307.582C143.777 307.582 142.137 307.555 142.137 307.501L163.031 271.28C163.784 270.043 164.16 269.344 164.16 269.182Z" fill="black"/>
<path d="M213.415 91.3443L213.334 53.2672L236.729 53.3479H260.124L260.205 61.4957V69.7242H229.711L229.63 75.7746C229.63 76.3662 229.603 77.1729 229.549 78.1948C229.549 79.1628 229.549 79.8351 229.549 80.2116C229.549 80.588 229.549 80.9376 229.549 81.2603C229.603 81.583 229.63 81.825 229.63 81.9863V82.2283C229.684 82.4435 233.932 82.551 242.376 82.551H255.042V98.8467H229.872V113.771H259.64V130.067H236.568C221.24 130.013 213.549 129.905 213.496 129.744C213.496 118.127 213.469 105.327 213.415 91.3443Z" fill="black"/>
<path d="M239.655 169.849V155.892H225.295V169.849H239.655ZM209.161 177.997L209.08 139.435C213.652 139.435 220.535 139.462 229.732 139.516C238.929 139.57 245.813 139.597 250.384 139.597L251.594 140.081C253.154 140.672 254.364 141.829 255.224 143.55L255.789 144.598V162.508C255.789 164.551 255.789 166.891 255.789 169.526C255.843 172.161 255.87 173.802 255.87 174.447C255.87 178.265 255.735 180.632 255.466 181.546C254.875 183.267 253.665 184.531 251.836 185.338L250.545 185.983H243.043L235.46 186.144C235.46 186.306 238.929 190.043 245.866 197.358C249.039 200.692 253.772 205.64 260.065 212.201L263.776 216.235C263.776 216.342 261.086 216.396 255.708 216.396C248.986 216.396 244.764 216.342 243.043 216.235L241.268 216.154L237.799 212.524C237.046 211.771 235.648 210.292 233.604 208.087C231.614 205.882 230.377 204.538 229.893 204.053L225.376 199.294V207.764L225.295 216.154L219.083 216.316C218.169 216.316 217.093 216.342 215.857 216.396C214.62 216.45 213.571 216.477 212.71 216.477C211.85 216.531 211.285 216.558 211.016 216.558H209.161V177.997Z" fill="black"/>
<rect opacity="0.8" x="216.611" y="234.704" width="51.7866" height="74.2482" rx="11.8548" fill="black"/>
</svg>
