<svg width="200" height="200" viewBox="0 0 200 200" fill="none" xmlns="http://www.w3.org/2000/svg">
<rect width="200" height="200" fill="white"/>
<path d="M156.963 82.7314H108.521C106.102 82.7314 104.893 82.732 103.92 83.0693C102.151 83.6828 100.761 85.073 100.147 86.8418C99.8101 87.8147 99.8105 89.0241 99.8105 91.4424C99.8105 93.8607 99.8101 95.0701 100.147 96.043C100.761 97.8117 102.151 99.202 103.92 99.8154C104.893 100.153 106.102 100.152 108.521 100.152H156.962C156.88 131.563 131.392 157 99.9629 157C68.4827 157 42.9629 131.48 42.9629 100C42.9629 68.5198 68.4827 43 99.9629 43H156.963V82.7314Z" fill="url(#paint0_radial_5242_3327)"/>
<path d="M156.963 82.7314H108.521C106.102 82.7314 104.893 82.732 103.92 83.0693C102.151 83.6828 100.761 85.073 100.147 86.8418C99.8101 87.8147 99.8105 89.0241 99.8105 91.4424C99.8105 93.8607 99.8101 95.0701 100.147 96.043C100.761 97.8117 102.151 99.202 103.92 99.8154C104.893 100.153 106.102 100.152 108.521 100.152H156.962C156.88 131.563 131.392 157 99.9629 157C68.4827 157 42.9629 131.48 42.9629 100C42.9629 68.5198 68.4827 43 99.9629 43H156.963V82.7314Z" fill="url(#paint1_linear_5242_3327)" fill-opacity="0.2"/>
<path d="M107.077 87.4463H113.055V89.1336H110.898V96.3164H109.15V89.1336H107.077V87.4463ZM121.009 87.4463H127.058V89.1336H122.756V91.0257H126.564V92.7129H122.756V94.6292H127.227V96.3164H121.009V87.4463ZM141.955 95.5813C141.858 95.6616 141.677 95.7701 141.412 95.9066C141.155 96.0432 140.838 96.1638 140.46 96.2682C140.083 96.3726 139.665 96.4209 139.207 96.4128C138.508 96.3968 137.881 96.2722 137.327 96.0392C136.78 95.7982 136.314 95.4728 135.929 95.063C135.551 94.6533 135.262 94.1833 135.061 93.653C134.86 93.1227 134.76 92.5563 134.76 91.9537C134.76 91.2788 134.86 90.6601 135.061 90.0977C135.27 89.5353 135.563 89.0492 135.941 88.6395C136.326 88.2297 136.784 87.9123 137.315 87.6874C137.845 87.4624 138.431 87.3499 139.074 87.3499C139.669 87.3499 140.195 87.4303 140.653 87.591C141.111 87.7517 141.485 87.9244 141.774 88.1092L141.087 89.7603C140.886 89.6076 140.617 89.451 140.279 89.2903C139.95 89.1215 139.568 89.0372 139.134 89.0372C138.797 89.0372 138.472 89.1095 138.158 89.2541C137.853 89.3907 137.58 89.5875 137.339 89.8446C137.106 90.1017 136.921 90.403 136.784 90.7485C136.648 91.086 136.579 91.4556 136.579 91.8573C136.579 92.2831 136.64 92.6728 136.76 93.0263C136.889 93.3798 137.07 93.6851 137.303 93.9422C137.536 94.1913 137.813 94.3841 138.134 94.5207C138.464 94.6573 138.833 94.7256 139.243 94.7256C139.717 94.7256 140.123 94.6493 140.46 94.4966C140.798 94.3439 141.055 94.1833 141.231 94.0145L141.955 95.5813ZM157.432 87.4463V96.3164H155.685V92.7129H151.72V96.3164H149.972V87.4463H151.72V91.0257H155.685V87.4463H157.432Z" fill="#6600CE"/>
<path d="M163.092 47.8374V46.9428H167.792V47.8374H165.971V52.834H164.913V47.8374H163.092ZM169.265 46.9428H170.571L172.32 51.2116H172.389L174.138 46.9428H175.444V52.834H174.42V48.7867H174.365L172.737 52.8167H171.972L170.344 48.7781H170.289V52.834H169.265V46.9428Z" fill="#6600CE"/>
<defs>
<radialGradient id="paint0_radial_5242_3327" cx="0" cy="0" r="1" gradientUnits="userSpaceOnUse" gradientTransform="translate(113.258 71.882) rotate(115.598) scale(117.426 318.153)">
<stop stop-color="#6600CE"/>
<stop offset="1" stop-color="#330068"/>
</radialGradient>
<linearGradient id="paint1_linear_5242_3327" x1="99.9629" y1="43" x2="99.9629" y2="157" gradientUnits="userSpaceOnUse">
<stop stop-color="white"/>
<stop offset="1" stop-color="#6600CE" stop-opacity="0"/>
</linearGradient>
</defs>
</svg>
