<svg width="100" height="100" viewBox="0 0 100 100" fill="none" xmlns="http://www.w3.org/2000/svg">
<rect width="100" height="100" fill="white"/>
<ellipse cx="61.45" cy="49.5" rx="22.5" ry="22.5" fill="white" stroke="#25C9D0" stroke-width="4.84559"/>
<ellipse cx="38.5" cy="49.5" rx="22.5" ry="22.5" fill="white" stroke="#FF5168" stroke-width="4.47285"/>
<path d="M49.9748 30.1504C56.6999 34.0408 61.2248 41.3117 61.2248 49.6396C61.2248 57.9676 56.6999 65.2385 49.9748 69.1289C43.2497 65.2385 38.7248 57.9677 38.7248 49.6396C38.7249 41.3116 43.2497 34.0407 49.9748 30.1504Z" fill="white"/>
<path d="M49.9748 30.1504L51.0947 28.2145L49.9748 27.5667L48.855 28.2145L49.9748 30.1504ZM61.2248 49.6396L63.4613 49.6396L63.4613 49.6396L61.2248 49.6396ZM49.9748 69.1289L48.855 71.0648L49.9748 71.7126L51.0947 71.0647L49.9748 69.1289ZM38.7248 49.6396L36.4884 49.6396V49.6396H38.7248ZM49.9748 30.1504L48.855 32.0862C54.9175 35.5934 58.9884 42.1424 58.9884 49.6397L61.2248 49.6396L63.4613 49.6396C63.4612 40.481 58.4823 32.4882 51.0947 28.2145L49.9748 30.1504ZM61.2248 49.6396H58.9884C58.9884 57.1369 54.9175 63.6859 48.855 67.1931L49.9748 69.1289L51.0947 71.0647C58.4822 66.7911 63.4613 58.7984 63.4613 49.6396H61.2248ZM49.9748 69.1289L51.0947 67.1931C45.0321 63.6859 40.9613 57.137 40.9613 49.6396H38.7248H36.4884C36.4884 58.7984 41.4673 66.7911 48.855 71.0648L49.9748 69.1289ZM38.7248 49.6396L40.9613 49.6397C40.9613 42.1423 45.0321 35.5933 51.0947 32.0862L49.9748 30.1504L48.855 28.2145C41.4673 32.4882 36.4885 40.4809 36.4884 49.6396L38.7248 49.6396Z" fill="black"/>
</svg>
