<svg width="200" height="200" viewBox="0 0 200 200" fill="none" xmlns="http://www.w3.org/2000/svg">
<g clip-path="url(#clip0_5242_3308)">
<rect width="200" height="200" fill="white"/>
<g clip-path="url(#clip1_5242_3308)">
<path d="M134.98 110.048C132.319 110.048 129.707 110.046 127.096 110.05C126.747 110.051 126.509 110.01 126.24 109.669C125.043 108.149 123.77 106.69 122.527 105.207C121.802 104.343 121.085 103.472 120.358 102.61C118.121 99.9603 115.876 97.3177 113.645 94.6642C112.291 93.0544 110.953 91.4304 109.611 89.8109C108.28 88.205 106.979 86.5722 105.614 84.9957C104 83.1318 102.338 81.3093 100.679 79.4848C100.4 79.1776 100.44 78.9939 100.728 78.7467C103.536 76.3327 106.34 73.9139 109.142 71.4924C112.26 68.7971 115.375 66.0977 118.543 63.3547C118.145 62.8744 117.769 62.4071 117.374 61.9558C117.309 61.8819 117.167 61.8596 117.056 61.8461C116.907 61.8279 116.754 61.8411 116.602 61.8411C103.411 61.8411 90.2203 61.8402 77.0295 61.8456C76.6769 61.8458 76.4629 61.7724 76.2266 61.4419C74.9996 59.7255 73.7126 58.052 72.4521 56.3593C71.9625 55.7018 71.4875 55.0334 70.9146 54.2443C71.2256 54.2443 71.4282 54.2443 71.6309 54.2443C87.3992 54.2443 103.168 54.2443 118.936 54.2443C119.526 54.2443 120.117 54.214 120.704 54.2592C120.937 54.2773 121.23 54.4034 121.374 54.5799C123.162 56.7709 124.934 58.9743 126.694 61.1874C127.498 62.1981 128.266 63.2369 129.107 64.337C123.157 69.4477 117.191 74.5717 111.168 79.7448C119.561 89.798 127.939 99.8323 136.316 109.867C136.295 109.927 136.273 109.987 136.252 110.048C135.844 110.048 135.437 110.048 134.98 110.048Z" fill="#FFB232"/>
<path d="M87.9409 75.515C90.0641 78.0401 92.1655 80.5363 94.2621 83.0366C96.8674 86.1437 99.4692 89.2538 102.072 92.3632C104.145 94.8408 106.221 97.3166 108.29 99.7983C110.994 103.042 113.692 106.29 116.39 109.538C116.479 109.646 116.538 109.779 116.66 109.983C116.367 110.002 116.173 110.024 115.978 110.024C113.182 110.026 110.385 110.022 107.588 110.03C107.16 110.031 106.875 109.962 106.56 109.557C105.415 108.083 104.17 106.686 102.968 105.256C101.257 103.221 99.548 101.185 97.8416 99.1469C96.0055 96.9538 94.1748 94.7561 92.3393 92.5625C90.2014 90.0076 88.0548 87.4599 85.9231 84.8998C84.1146 82.728 82.3161 80.5478 80.5289 78.3584C80.284 78.0584 80.1267 78.0526 79.8446 78.2992C75.8914 81.7543 71.9324 85.2028 67.9707 88.6482C64.1229 91.9945 60.269 95.3337 56.4204 98.6789C52.3182 102.245 48.2206 105.815 44.1132 109.375C43.9508 109.516 43.7084 109.643 43.5027 109.643C39.8973 109.659 36.2918 109.655 32.6863 109.654C32.6388 109.654 32.5914 109.64 32.4094 109.613C48.72 95.5557 64.9593 81.5601 81.2551 67.5156C83.5019 70.2044 85.7095 72.8462 87.9409 75.515Z" fill="#868686"/>
<path d="M138.825 75.8911C148.128 86.9961 157.411 98.0717 166.757 109.222C166.51 109.233 166.336 109.248 166.162 109.248C163.264 109.249 160.366 109.246 157.468 109.253C157.138 109.254 156.947 109.18 156.714 108.875C155.836 107.728 154.873 106.645 153.946 105.535C151.919 103.108 149.895 100.679 147.868 98.2521C145.938 95.9402 144.005 93.6302 142.074 91.3185C139.766 88.5552 137.459 85.7908 135.152 83.0273C134.257 81.9554 133.355 80.889 132.468 79.8101C132.268 79.5661 132.124 79.6332 131.93 79.8022C130.165 81.3375 128.397 82.869 126.628 84.3992C125.7 85.2016 124.768 85.999 123.788 86.842C123.222 86.1909 122.674 85.5628 122.128 84.9322C121.16 83.8126 120.201 82.6843 119.221 81.5756C118.95 81.2698 118.938 81.0909 119.272 80.8041C122.693 77.8663 126.1 74.911 129.509 71.9593C130.501 71.1003 131.498 70.2464 132.476 69.3707C132.794 69.0851 132.977 69.0762 133.277 69.4296C135.103 71.5871 136.959 73.7204 138.825 75.8911Z" fill="#868686"/>
</g>
<path d="M26.0146 139.006V125.897H30.2756L32.9243 134.649L35.5154 125.897H39.8339V139.006H37.1852V129.294H36.9165L34.1719 138.66H31.6767L28.932 129.294H28.6633V139.006H26.0146ZM42.0355 139.006V136.165H44.7034V139.006H42.0355ZM46.8951 139.006V125.897H52.0197C53.069 125.897 53.9455 126.031 54.6492 126.3C55.3658 126.568 55.8968 127.016 56.2423 127.643C56.6006 128.27 56.7797 129.121 56.7797 130.196C56.7797 131.143 56.607 131.943 56.2615 132.595C55.9288 133.235 55.417 133.708 54.726 134.016L56.7797 139.006H53.9967L52.2692 134.611H49.5438V139.006H46.8951ZM49.5438 132.442H52.0773C52.5635 132.442 52.9538 132.352 53.2481 132.173C53.5424 131.981 53.7535 131.719 53.8815 131.386C54.0095 131.041 54.0734 130.65 54.0734 130.215C54.0734 129.499 53.9071 128.961 53.5744 128.603C53.2417 128.245 52.7235 128.066 52.0197 128.066H49.5438V132.442ZM58.5112 139.006V136.165H61.1791V139.006H58.5112ZM72.2722 139.217C71.2485 139.217 70.404 139.089 69.7386 138.833C69.0861 138.564 68.5678 138.155 68.184 137.605C67.8001 137.055 67.5314 136.357 67.3778 135.513C67.2371 134.655 67.1667 133.638 67.1667 132.461C67.1667 131.271 67.2371 130.254 67.3778 129.409C67.5314 128.552 67.8001 127.848 68.184 127.298C68.5678 126.748 69.0925 126.338 69.7578 126.069C70.436 125.801 71.2997 125.666 72.349 125.666C72.7712 125.666 73.2127 125.692 73.6733 125.743C74.134 125.794 74.5754 125.858 74.9977 125.935C75.4327 125.999 75.8038 126.069 76.1109 126.146L76.0341 128.257C75.7782 128.206 75.4583 128.162 75.0744 128.123C74.6906 128.072 74.3003 128.034 73.9036 128.008C73.507 127.982 73.1359 127.97 72.7904 127.97C72.1762 127.97 71.6772 128.046 71.2933 128.2C70.9095 128.353 70.6088 128.609 70.3912 128.968C70.1865 129.326 70.0457 129.793 69.969 130.369C69.8922 130.932 69.8538 131.629 69.8538 132.461C69.8538 133.28 69.8922 133.977 69.969 134.553C70.0457 135.116 70.1865 135.577 70.3912 135.935C70.596 136.28 70.8903 136.536 71.2741 136.703C71.6708 136.856 72.1826 136.933 72.8096 136.933C73.3214 136.933 73.8844 136.907 74.4986 136.856C75.1256 136.792 75.6439 136.735 76.0533 136.683L76.1109 138.776C75.8038 138.84 75.4391 138.91 75.0169 138.987C74.5946 139.051 74.1468 139.102 73.6733 139.14C73.1999 139.191 72.7328 139.217 72.2722 139.217ZM81.7394 139.217C80.6518 139.217 79.7753 139.038 79.1099 138.68C78.4573 138.321 77.9839 137.771 77.6896 137.029C77.3953 136.274 77.2481 135.302 77.2481 134.112C77.2481 132.96 77.4017 132.026 77.7088 131.309C78.0159 130.58 78.5021 130.042 79.1675 129.697C79.8328 129.339 80.6902 129.16 81.7394 129.16C82.8014 129.16 83.6587 129.339 84.3113 129.697C84.9767 130.042 85.4629 130.58 85.77 131.309C86.0899 132.026 86.2499 132.96 86.2499 134.112C86.2499 135.302 86.1027 136.274 85.8084 137.029C85.5141 137.771 85.0343 138.321 84.3689 138.68C83.7163 139.038 82.8398 139.217 81.7394 139.217ZM81.7394 137.106C82.2768 137.106 82.6799 137.01 82.9486 136.818C83.2173 136.613 83.3964 136.293 83.486 135.858C83.5884 135.41 83.6396 134.828 83.6396 134.112C83.6396 133.408 83.582 132.851 83.4668 132.442C83.3517 132.019 83.1597 131.719 82.891 131.54C82.6223 131.36 82.2384 131.271 81.7394 131.271C81.2532 131.271 80.8693 131.36 80.5878 131.54C80.3191 131.719 80.1271 132.019 80.012 132.442C79.8968 132.851 79.8392 133.408 79.8392 134.112C79.8392 134.828 79.884 135.41 79.9736 135.858C80.076 136.293 80.2615 136.613 80.5302 136.818C80.7989 137.01 81.202 137.106 81.7394 137.106ZM87.9963 139.006V129.371H90.5491V129.985C90.7538 129.857 91.0033 129.735 91.2976 129.62C91.5919 129.492 91.899 129.384 92.2189 129.294C92.5516 129.204 92.8715 129.16 93.1786 129.16C93.844 129.16 94.3942 129.249 94.8292 129.428C95.2771 129.595 95.629 129.87 95.8849 130.254C96.1408 130.637 96.3263 131.143 96.4415 131.77C96.5566 132.384 96.6142 133.133 96.6142 134.016V139.006H94.0423V134.15C94.0423 133.485 94.0039 132.954 93.9271 132.557C93.8504 132.147 93.7032 131.853 93.4857 131.674C93.2682 131.495 92.9483 131.405 92.526 131.405C92.2957 131.405 92.0526 131.431 91.7966 131.482C91.5535 131.52 91.3168 131.578 91.0865 131.655C90.869 131.732 90.6898 131.808 90.5491 131.885V139.006H87.9963ZM102.079 139.217C101.657 139.217 101.203 139.191 100.717 139.14C100.243 139.102 99.7952 139.051 99.373 138.987C98.9635 138.923 98.6116 138.859 98.3173 138.795L98.3941 136.895C98.7268 136.933 99.0979 136.978 99.5073 137.029C99.9296 137.08 100.339 137.125 100.736 137.163C101.145 137.189 101.478 137.202 101.734 137.202C102.118 137.202 102.431 137.17 102.674 137.106C102.93 137.042 103.122 136.939 103.25 136.799C103.378 136.645 103.442 136.428 103.442 136.146C103.442 135.928 103.384 135.762 103.269 135.647C103.167 135.532 102.962 135.436 102.655 135.359C102.361 135.27 101.926 135.18 101.35 135.09C100.633 134.988 100.038 134.841 99.5649 134.649C99.1043 134.457 98.7652 134.175 98.5477 133.804C98.3301 133.421 98.2214 132.902 98.2214 132.25C98.2214 131.456 98.3941 130.836 98.7396 130.388C99.0851 129.94 99.5457 129.627 100.122 129.447C100.697 129.256 101.324 129.16 102.003 129.16C102.45 129.16 102.911 129.185 103.384 129.236C103.858 129.275 104.306 129.326 104.728 129.39C105.15 129.454 105.502 129.518 105.784 129.582L105.707 131.52C105.387 131.469 105.016 131.424 104.594 131.386C104.171 131.335 103.749 131.296 103.327 131.271C102.917 131.245 102.572 131.232 102.29 131.232C101.996 131.232 101.734 131.264 101.503 131.328C101.273 131.38 101.094 131.469 100.966 131.597C100.851 131.725 100.793 131.917 100.793 132.173C100.793 132.352 100.844 132.499 100.947 132.614C101.049 132.73 101.241 132.832 101.523 132.922C101.817 132.998 102.239 133.075 102.789 133.152C103.583 133.267 104.216 133.427 104.69 133.632C105.163 133.836 105.502 134.131 105.707 134.515C105.924 134.898 106.033 135.417 106.033 136.069C106.033 136.837 105.88 137.451 105.572 137.912C105.265 138.372 104.818 138.705 104.229 138.91C103.64 139.115 102.924 139.217 102.079 139.217ZM111.093 139.236C110.389 139.236 109.82 139.134 109.385 138.929C108.949 138.724 108.636 138.372 108.444 137.873C108.265 137.362 108.175 136.651 108.175 135.743V131.501H107.043V129.371H108.175V126.818H110.728V129.371H113.185V131.501H110.728V135.071C110.728 135.57 110.747 135.96 110.786 136.242C110.837 136.523 110.939 136.722 111.093 136.837C111.246 136.952 111.483 137.01 111.803 137.01C111.892 137.01 112.027 137.003 112.206 136.991C112.385 136.978 112.564 136.965 112.743 136.952C112.923 136.939 113.07 136.927 113.185 136.914L113.262 138.967C113.07 139.006 112.833 139.044 112.551 139.083C112.283 139.121 112.014 139.153 111.745 139.179C111.489 139.217 111.272 139.236 111.093 139.236ZM114.612 139.006V129.371H117.165V130.503C117.383 130.337 117.651 130.164 117.971 129.985C118.291 129.793 118.637 129.62 119.008 129.467C119.392 129.3 119.756 129.192 120.102 129.14V131.616C119.769 131.668 119.417 131.757 119.046 131.885C118.675 132 118.323 132.128 117.99 132.269C117.671 132.41 117.395 132.538 117.165 132.653V139.006H114.612ZM121.435 139.006V129.371H123.988V139.006H121.435ZM121.435 127.835V125.647H124.007V127.835H121.435ZM130.056 139.217C128.955 139.217 128.091 139.051 127.465 138.718C126.85 138.372 126.415 137.822 126.159 137.067C125.916 136.312 125.795 135.321 125.795 134.092C125.795 132.877 125.935 131.911 126.217 131.194C126.498 130.465 126.953 129.947 127.58 129.639C128.219 129.32 129.051 129.16 130.075 129.16C130.344 129.16 130.657 129.179 131.015 129.217C131.374 129.256 131.732 129.307 132.09 129.371C132.461 129.422 132.775 129.473 133.031 129.524L132.935 131.578C132.692 131.552 132.416 131.533 132.109 131.52C131.802 131.495 131.502 131.476 131.207 131.463C130.926 131.437 130.695 131.424 130.516 131.424C129.966 131.424 129.531 131.514 129.211 131.693C128.904 131.859 128.686 132.141 128.559 132.538C128.443 132.922 128.386 133.44 128.386 134.092C128.386 134.796 128.443 135.359 128.559 135.781C128.674 136.204 128.878 136.504 129.173 136.683C129.48 136.863 129.928 136.952 130.516 136.952C130.695 136.952 130.932 136.946 131.226 136.933C131.521 136.907 131.821 136.882 132.129 136.856C132.448 136.831 132.73 136.811 132.973 136.799L133.05 138.852C132.794 138.903 132.487 138.955 132.129 139.006C131.77 139.07 131.406 139.121 131.035 139.159C130.676 139.198 130.35 139.217 130.056 139.217ZM138.084 139.236C137.38 139.236 136.81 139.134 136.375 138.929C135.94 138.724 135.627 138.372 135.435 137.873C135.256 137.362 135.166 136.651 135.166 135.743V131.501H134.034V129.371H135.166V126.818H137.719V129.371H140.176V131.501H137.719V135.071C137.719 135.57 137.738 135.96 137.777 136.242C137.828 136.523 137.93 136.722 138.084 136.837C138.237 136.952 138.474 137.01 138.794 137.01C138.883 137.01 139.018 137.003 139.197 136.991C139.376 136.978 139.555 136.965 139.734 136.952C139.913 136.939 140.061 136.927 140.176 136.914L140.252 138.967C140.061 139.006 139.824 139.044 139.542 139.083C139.274 139.121 139.005 139.153 138.736 139.179C138.48 139.217 138.263 139.236 138.084 139.236ZM141.603 139.006V129.371H144.156V139.006H141.603ZM141.603 127.835V125.647H144.175V127.835H141.603ZM150.435 139.217C149.347 139.217 148.471 139.038 147.805 138.68C147.153 138.321 146.679 137.771 146.385 137.029C146.091 136.274 145.944 135.302 145.944 134.112C145.944 132.96 146.097 132.026 146.404 131.309C146.711 130.58 147.198 130.042 147.863 129.697C148.528 129.339 149.386 129.16 150.435 129.16C151.497 129.16 152.354 129.339 153.007 129.697C153.672 130.042 154.158 130.58 154.466 131.309C154.785 132.026 154.945 132.96 154.945 134.112C154.945 135.302 154.798 136.274 154.504 137.029C154.21 137.771 153.73 138.321 153.064 138.68C152.412 139.038 151.535 139.217 150.435 139.217ZM150.435 137.106C150.972 137.106 151.375 137.01 151.644 136.818C151.913 136.613 152.092 136.293 152.182 135.858C152.284 135.41 152.335 134.828 152.335 134.112C152.335 133.408 152.278 132.851 152.162 132.442C152.047 132.019 151.855 131.719 151.587 131.54C151.318 131.36 150.934 131.271 150.435 131.271C149.949 131.271 149.565 131.36 149.283 131.54C149.015 131.719 148.823 132.019 148.708 132.442C148.592 132.851 148.535 133.408 148.535 134.112C148.535 134.828 148.58 135.41 148.669 135.858C148.772 136.293 148.957 136.613 149.226 136.818C149.494 137.01 149.898 137.106 150.435 137.106ZM156.692 139.006V129.371H159.245V129.985C159.449 129.857 159.699 129.735 159.993 129.62C160.287 129.492 160.595 129.384 160.914 129.294C161.247 129.204 161.567 129.16 161.874 129.16C162.54 129.16 163.09 129.249 163.525 129.428C163.973 129.595 164.325 129.87 164.58 130.254C164.836 130.637 165.022 131.143 165.137 131.77C165.252 132.384 165.31 133.133 165.31 134.016V139.006H162.738V134.15C162.738 133.485 162.699 132.954 162.623 132.557C162.546 132.147 162.399 131.853 162.181 131.674C161.964 131.495 161.644 131.405 161.222 131.405C160.991 131.405 160.748 131.431 160.492 131.482C160.249 131.52 160.012 131.578 159.782 131.655C159.565 131.732 159.385 131.808 159.245 131.885V139.006H156.692ZM170.775 139.217C170.353 139.217 169.898 139.191 169.412 139.14C168.939 139.102 168.491 139.051 168.069 138.987C167.659 138.923 167.307 138.859 167.013 138.795L167.09 136.895C167.422 136.933 167.793 136.978 168.203 137.029C168.625 137.08 169.035 137.125 169.431 137.163C169.841 137.189 170.173 137.202 170.429 137.202C170.813 137.202 171.127 137.17 171.37 137.106C171.626 137.042 171.818 136.939 171.946 136.799C172.074 136.645 172.138 136.428 172.138 136.146C172.138 135.928 172.08 135.762 171.965 135.647C171.862 135.532 171.658 135.436 171.351 135.359C171.056 135.27 170.621 135.18 170.045 135.09C169.329 134.988 168.734 134.841 168.26 134.649C167.8 134.457 167.461 134.175 167.243 133.804C167.026 133.421 166.917 132.902 166.917 132.25C166.917 131.456 167.09 130.836 167.435 130.388C167.781 129.94 168.241 129.627 168.817 129.447C169.393 129.256 170.02 129.16 170.698 129.16C171.146 129.16 171.607 129.185 172.08 129.236C172.553 129.275 173.001 129.326 173.424 129.39C173.846 129.454 174.198 129.518 174.479 129.582L174.402 131.52C174.083 131.469 173.711 131.424 173.289 131.386C172.867 131.335 172.445 131.296 172.022 131.271C171.613 131.245 171.267 131.232 170.986 131.232C170.692 131.232 170.429 131.264 170.199 131.328C169.969 131.38 169.79 131.469 169.662 131.597C169.546 131.725 169.489 131.917 169.489 132.173C169.489 132.352 169.54 132.499 169.642 132.614C169.745 132.73 169.937 132.832 170.218 132.922C170.513 132.998 170.935 133.075 171.485 133.152C172.278 133.267 172.912 133.427 173.385 133.632C173.859 133.836 174.198 134.131 174.402 134.515C174.62 134.898 174.729 135.417 174.729 136.069C174.729 136.837 174.575 137.451 174.268 137.912C173.961 138.372 173.513 138.705 172.925 138.91C172.336 139.115 171.619 139.217 170.775 139.217Z" fill="#868686"/>
</g>
<defs>
<clipPath id="clip0_5242_3308">
<rect width="200" height="200" fill="white"/>
</clipPath>
<clipPath id="clip1_5242_3308">
<rect width="140.524" height="65.005" fill="white" transform="translate(30.0435 49)"/>
</clipPath>
</defs>
</svg>
