<svg width="200" height="200" viewBox="0 0 200 200" fill="none" xmlns="http://www.w3.org/2000/svg">
<rect width="200" height="200" fill="#EA3233"/>
<path d="M40.0998 141.418H79.6692C104.899 141.418 128.172 151.996 140.461 174.03C140.496 174.096 141.386 176 141.453 176C143.754 176 141.453 176 143.622 176H161.646C163.8 176 161.646 176 166.036 176C156.742 153.734 139.537 133.119 131.552 125.685C128.842 123.159 128.579 118.952 130.939 116.097C157.228 84.2789 153.582 68.4134 146.813 60.8965C143.219 56.8995 138.009 54.7324 132.629 54.7324H99.9235H82.6048L68.504 79.6864H107.193C111.155 79.6864 114.031 83.539 112.81 87.3084C102.785 118.282 55.2271 124.946 43.2886 124.552L33.7998 141.418C33.7989 141.418 40.0998 141.418 40.0998 141.418Z" fill="white"/>
<path d="M148.336 53.7697C156.557 53.7697 163.221 47.1055 163.221 38.8849C163.221 30.6642 156.557 24 148.336 24C140.115 24 133.451 30.6642 133.451 38.8849C133.451 47.1055 140.115 53.7697 148.336 53.7697Z" fill="white"/>
</svg>
