<svg width="289" height="56" viewBox="0 0 289 56" fill="none" xmlns="http://www.w3.org/2000/svg">
<rect width="289" height="56" fill="white"/>
<rect width="289" height="56" fill="url(#paint0_linear_6094_14895)"/>
<rect x="6.5" y="4.5" width="276" height="46" rx="7.5" fill="url(#paint1_linear_6094_14895)" stroke="white"/>
<path d="M94.5 30.5V33.8333C94.5 34.2754 94.3244 34.6993 94.0118 35.0118C93.6993 35.3244 93.2754 35.5 92.8333 35.5H81.1667C80.7246 35.5 80.3007 35.3244 79.9882 35.0118C79.6756 34.6993 79.5 34.2754 79.5 33.8333V30.5" stroke="white" stroke-width="1.66667" stroke-linecap="round" stroke-linejoin="round"/>
<path d="M82.8333 26.3333L86.9999 30.5L91.1666 26.3333" stroke="white" stroke-width="1.66667" stroke-linecap="round" stroke-linejoin="round"/>
<path d="M87 30.5V20.5" stroke="white" stroke-width="1.66667" stroke-linecap="round" stroke-linejoin="round"/>
<path d="M110.818 32.5H107.861V23.7727H110.878C111.744 23.7727 112.489 23.9474 113.111 24.2969C113.736 24.6435 114.216 25.142 114.551 25.7926C114.886 26.4432 115.054 27.2216 115.054 28.1278C115.054 29.0369 114.885 29.8182 114.547 30.4716C114.212 31.125 113.727 31.6264 113.094 31.9759C112.463 32.3253 111.705 32.5 110.818 32.5ZM109.442 31.1321H110.741C111.349 31.1321 111.857 31.0213 112.263 30.7997C112.669 30.5753 112.974 30.2415 113.179 29.7983C113.384 29.3523 113.486 28.7955 113.486 28.1278C113.486 27.4602 113.384 26.9062 113.179 26.4659C112.974 26.0227 112.672 25.6918 112.271 25.473C111.874 25.2514 111.379 25.1406 110.788 25.1406H109.442V31.1321ZM124.354 28.1364C124.354 29.0767 124.178 29.8821 123.826 30.5526C123.477 31.2202 122.999 31.7315 122.394 32.0866C121.792 32.4418 121.109 32.6193 120.344 32.6193C119.58 32.6193 118.896 32.4418 118.29 32.0866C117.688 31.7287 117.211 31.2159 116.859 30.5483C116.509 29.8778 116.335 29.0739 116.335 28.1364C116.335 27.196 116.509 26.392 116.859 25.7244C117.211 25.054 117.688 24.5412 118.29 24.1861C118.896 23.831 119.58 23.6534 120.344 23.6534C121.109 23.6534 121.792 23.831 122.394 24.1861C122.999 24.5412 123.477 25.054 123.826 25.7244C124.178 26.392 124.354 27.196 124.354 28.1364ZM122.765 28.1364C122.765 27.4744 122.661 26.9162 122.454 26.4616C122.249 26.0043 121.965 25.6591 121.602 25.4261C121.238 25.1903 120.819 25.0724 120.344 25.0724C119.87 25.0724 119.451 25.1903 119.087 25.4261C118.724 25.6591 118.438 26.0043 118.231 26.4616C118.026 26.9162 117.924 27.4744 117.924 28.1364C117.924 28.7983 118.026 29.358 118.231 29.8153C118.438 30.2699 118.724 30.6151 119.087 30.8509C119.451 31.0838 119.87 31.2003 120.344 31.2003C120.819 31.2003 121.238 31.0838 121.602 30.8509C121.965 30.6151 122.249 30.2699 122.454 29.8153C122.661 29.358 122.765 28.7983 122.765 28.1364ZM127.463 32.5L125 23.7727H126.7L128.273 30.1861H128.354L130.033 23.7727H131.58L133.263 30.1903H133.339L134.912 23.7727H136.612L134.149 32.5H132.589L130.842 26.3764H130.774L129.023 32.5H127.463ZM144.88 23.7727V32.5H143.474L139.362 26.5554H139.289V32.5H137.708V23.7727H139.123L143.231 29.7216H143.308V23.7727H144.88ZM146.603 32.5V23.7727H148.184V31.1747H152.028V32.5H146.603ZM160.858 28.1364C160.858 29.0767 160.682 29.8821 160.33 30.5526C159.98 31.2202 159.503 31.7315 158.898 32.0866C158.296 32.4418 157.613 32.6193 156.848 32.6193C156.084 32.6193 155.4 32.4418 154.794 32.0866C154.192 31.7287 153.715 31.2159 153.363 30.5483C153.013 29.8778 152.838 29.0739 152.838 28.1364C152.838 27.196 153.013 26.392 153.363 25.7244C153.715 25.054 154.192 24.5412 154.794 24.1861C155.4 23.831 156.084 23.6534 156.848 23.6534C157.613 23.6534 158.296 23.831 158.898 24.1861C159.503 24.5412 159.98 25.054 160.33 25.7244C160.682 26.392 160.858 27.196 160.858 28.1364ZM159.269 28.1364C159.269 27.4744 159.165 26.9162 158.958 26.4616C158.753 26.0043 158.469 25.6591 158.105 25.4261C157.742 25.1903 157.323 25.0724 156.848 25.0724C156.374 25.0724 155.955 25.1903 155.591 25.4261C155.228 25.6591 154.942 26.0043 154.735 26.4616C154.53 26.9162 154.428 27.4744 154.428 28.1364C154.428 28.7983 154.53 29.358 154.735 29.8153C154.942 30.2699 155.228 30.6151 155.591 30.8509C155.955 31.0838 156.374 31.2003 156.848 31.2003C157.323 31.2003 157.742 31.0838 158.105 30.8509C158.469 30.6151 158.753 30.2699 158.958 29.8153C159.165 29.358 159.269 28.7983 159.269 28.1364ZM163.005 32.5H161.317L164.39 23.7727H166.342L169.418 32.5H167.731L165.4 25.5625H165.332L163.005 32.5ZM163.06 29.0781H167.663V30.348H163.06V29.0781ZM173.525 32.5H170.568V23.7727H173.585C174.451 23.7727 175.196 23.9474 175.818 24.2969C176.443 24.6435 176.923 25.142 177.258 25.7926C177.593 26.4432 177.761 27.2216 177.761 28.1278C177.761 29.0369 177.592 29.8182 177.254 30.4716C176.919 31.125 176.434 31.6264 175.801 31.9759C175.17 32.3253 174.412 32.5 173.525 32.5ZM172.149 31.1321H173.449C174.056 31.1321 174.564 31.0213 174.97 30.7997C175.376 30.5753 175.681 30.2415 175.886 29.7983C176.091 29.3523 176.193 28.7955 176.193 28.1278C176.193 27.4602 176.091 26.9062 175.886 26.4659C175.681 26.0227 175.379 25.6918 174.978 25.473C174.581 25.2514 174.086 25.1406 173.495 25.1406H172.149V31.1321ZM183.821 23.7727V32.5H182.24V23.7727H183.821ZM193.003 26.7173H191.409C191.364 26.456 191.28 26.2244 191.158 26.0227C191.036 25.8182 190.884 25.6449 190.702 25.5028C190.52 25.3608 190.313 25.2543 190.08 25.1832C189.849 25.1094 189.601 25.0724 189.334 25.0724C188.859 25.0724 188.439 25.1918 188.072 25.4304C187.706 25.6662 187.419 26.0128 187.212 26.4702C187.004 26.9247 186.901 27.4801 186.901 28.1364C186.901 28.804 187.004 29.3665 187.212 29.8239C187.422 30.2784 187.709 30.6222 188.072 30.8551C188.439 31.0852 188.858 31.2003 189.33 31.2003C189.591 31.2003 189.835 31.1662 190.062 31.098C190.293 31.027 190.499 30.9233 190.68 30.7869C190.865 30.6506 191.02 30.483 191.145 30.2841C191.273 30.0852 191.361 29.858 191.409 29.6023L193.003 29.6108C192.943 30.0256 192.814 30.4148 192.615 30.7784C192.419 31.142 192.162 31.4631 191.844 31.7415C191.526 32.017 191.153 32.233 190.727 32.3892C190.301 32.5426 189.828 32.6193 189.308 32.6193C188.541 32.6193 187.857 32.4418 187.254 32.0866C186.652 31.7315 186.178 31.2188 185.831 30.5483C185.484 29.8778 185.311 29.0739 185.311 28.1364C185.311 27.196 185.486 26.392 185.835 25.7244C186.185 25.054 186.661 24.5412 187.263 24.1861C187.865 23.831 188.547 23.6534 189.308 23.6534C189.794 23.6534 190.246 23.7216 190.663 23.858C191.081 23.9943 191.453 24.1946 191.78 24.4588C192.107 24.7202 192.375 25.0412 192.585 25.4219C192.798 25.7997 192.938 26.2315 193.003 26.7173ZM202.249 28.1364C202.249 29.0767 202.073 29.8821 201.721 30.5526C201.371 31.2202 200.894 31.7315 200.289 32.0866C199.686 32.4418 199.003 32.6193 198.239 32.6193C197.475 32.6193 196.79 32.4418 196.185 32.0866C195.583 31.7287 195.105 31.2159 194.753 30.5483C194.404 29.8778 194.229 29.0739 194.229 28.1364C194.229 27.196 194.404 26.392 194.753 25.7244C195.105 25.054 195.583 24.5412 196.185 24.1861C196.79 23.831 197.475 23.6534 198.239 23.6534C199.003 23.6534 199.686 23.831 200.289 24.1861C200.894 24.5412 201.371 25.054 201.721 25.7244C202.073 26.392 202.249 27.196 202.249 28.1364ZM200.659 28.1364C200.659 27.4744 200.556 26.9162 200.348 26.4616C200.144 26.0043 199.86 25.6591 199.496 25.4261C199.132 25.1903 198.713 25.0724 198.239 25.0724C197.765 25.0724 197.346 25.1903 196.982 25.4261C196.618 25.6591 196.333 26.0043 196.125 26.4616C195.921 26.9162 195.819 27.4744 195.819 28.1364C195.819 28.7983 195.921 29.358 196.125 29.8153C196.333 30.2699 196.618 30.6151 196.982 30.8509C197.346 31.0838 197.765 31.2003 198.239 31.2003C198.713 31.2003 199.132 31.0838 199.496 30.8509C199.86 30.6151 200.144 30.2699 200.348 29.8153C200.556 29.358 200.659 28.7983 200.659 28.1364ZM210.915 23.7727V32.5H209.509L205.397 26.5554H205.325V32.5H203.744V23.7727H205.158L209.266 29.7216H209.343V23.7727H210.915Z" fill="white"/>
<path d="M107 34.8864H211.772V35.7045H107V34.8864Z" fill="white"/>
<a href="https://github.com/rakeshkanna-rk/Glass-Icons/raw/main/GlassIconsOnly.zip">
<rect fill="black" fill-opacity="0" y="0.238636" width="104.772" height="14.5227"/>
</a>
<defs>
<linearGradient id="paint0_linear_6094_14895" x1="144.5" y1="56" x2="144.5" y2="0" gradientUnits="userSpaceOnUse">
<stop stop-color="#666666"/>
<stop offset="1" stop-color="#1E1E1E"/>
</linearGradient>
<linearGradient id="paint1_linear_6094_14895" x1="144.5" y1="4" x2="144.5" y2="51" gradientUnits="userSpaceOnUse">
<stop stop-color="#666666"/>
<stop offset="1" stop-color="#1E1E1E"/>
</linearGradient>
</defs>
</svg>
