<svg width="30" height="30" viewBox="0 0 30 30" fill="none" xmlns="http://www.w3.org/2000/svg">
<path d="M8.46104 6.44531C13.134 6.44531 16.9218 10.2596 16.9218 14.9644C16.9218 19.6693 13.1337 23.4832 8.46104 23.4832C3.78841 23.4832 0 19.6693 0 14.9644C0 10.2596 3.78812 6.44531 8.46104 6.44531ZM21.9727 6.94434C24.3092 6.94434 26.2033 10.5347 26.2033 14.9644H26.2035C26.2035 19.393 24.3095 22.9845 21.973 22.9845C19.6366 22.9845 17.7425 19.393 17.7425 14.9644C17.7425 10.5358 19.6363 6.94434 21.9727 6.94434ZM28.5121 7.77969C29.3337 7.77969 30 10.9964 30 14.9644C30 18.9313 29.334 22.1492 28.5121 22.1492C27.6903 22.1492 27.0245 18.9322 27.0245 14.9644C27.0245 10.9966 27.6906 7.77969 28.5121 7.77969Z" fill="white"/>
</svg>
